<?xml version="1.0" encoding="iso-8859-1"?>
<!-- Generator: Adobe Illustrator 19.0.0, SVG Export Plug-In . SVG Version: 6.00 Build 0)  -->
<svg version="1.1" id="Capa_1" xmlns="http://www.w3.org/2000/svg" xmlns:xlink="http://www.w3.org/1999/xlink" x="0px" y="0px"
	 viewBox="0 0 512 512" style="enable-background:new 0 0 512 512;" xml:space="preserve">
<g>
	<g>
		<path d="M287.036,0C162.701,0,62.071,100.62,62.071,224.964v15h134.547v-15c0-49.856,40.562-90.418,90.418-90.418
			s90.417,40.562,90.417,90.418s-40.561,90.417-90.417,90.417h-15v134.546h15C411.367,449.928,512,349.312,512,224.964
			C512,100.634,411.384,0,287.036,0z M360.876,129.911c-20.405-15.888-46.036-25.365-73.84-25.365
			c-61.32,0-112.083,46.071-119.488,105.418H92.643C100.326,109.441,184.578,30,287.036,30c48.364,0,92.666,17.708,126.778,46.973
			L360.876,129.911z M302.036,419.357v-74.904c59.347-7.406,105.417-58.168,105.417-119.488c0-27.804-9.477-53.435-25.364-73.84
			l52.938-52.938C464.292,132.298,482,176.6,482,224.964C482,327.422,402.56,411.674,302.036,419.357z"/>
	</g>
</g>
<g>
	<g>
		<path d="M224.964,377.454c-49.857,0-90.417-40.562-90.417-90.418v-15H0v15C0,411.366,100.616,512,224.964,512h15V377.454H224.964z
			 M30.571,302.036h74.906c1.778,14.25,6.076,27.723,12.4,39.988H37.902C34.123,329.19,31.624,315.812,30.571,302.036z
			 M209.964,481.429c-38.598-2.95-74.084-17.194-103.162-39.417h103.162V481.429z M209.964,412.011H75.438
			c-10.183-12.162-18.906-25.582-25.912-39.987h90.213c18.483,18.534,42.951,31.097,70.225,34.5V412.011z"/>
	</g>
</g>
<g>
</g>
<g>
</g>
<g>
</g>
<g>
</g>
<g>
</g>
<g>
</g>
<g>
</g>
<g>
</g>
<g>
</g>
<g>
</g>
<g>
</g>
<g>
</g>
<g>
</g>
<g>
</g>
<g>
</g>
</svg>
